<svg version="1.1" xmlns="http://www.w3.org/2000/svg" width="32" height="32" style=""><rect id="backgroundrect" width="100%" height="100%" x="0" y="0" fill="#ffffff" stroke="#dadada" style="" class="" fill-opacity="1" stroke-opacity="1" opacity="1"/>
<title>lattes-new</title>

<g class="currentLayer" style=""><title>Layer 1</title><path d="M7.7025482058525085,26.5939998626709 c-2.7330000400543213,-5.599999904632568 -4.359000205993652,-8.982000350952148 -4.359000205993652,-9.065999984741211 c0,-0.13699999451637268 0.16699999570846558,-0.11800000071525574 1.809000015258789,0.20399999618530273 c2.888000011444092,0.5669999718666077 4.431000232696533,0.7269999980926514 7.002999782562256,0.7279999852180481 c3.4030001163482666,0.0010000000474974513 6.173999786376953,-0.5379999876022339 8.32699966430664,-1.621000051498413 c1.1390000581741333,-0.5730000138282776 1.8240000009536743,-1.0809999704360962 2.384999990463257,-1.7690000534057617 c0.6909999847412109,-0.8479999899864197 0.9129999876022339,-1.4320000410079956 0.9210000038146973,-2.4149999618530273 c0.007000000216066837,-0.9350000023841858 -0.11900000274181366,-1.4279999732971191 -0.6600000262260437,-2.572000026702881 c-0.21400000154972076,-0.4519999921321869 -0.4020000100135803,-0.9710000157356262 -0.41999998688697815,-1.152999997138977 c-0.02800000086426735,-0.2930000126361847 -0.004000000189989805,-0.33500000834465027 0.21199999749660492,-0.36000001430511475 c0.47200000286102295,-0.0560000017285347 2.802000045776367,2.2060000896453857 3.6600000858306885,3.552999973297119 c1.4789999723434448,2.322999954223633 1.5989999771118164,4.835999965667725 0.34700000286102295,7.265999794006348 c-0.7689999938011169,1.4930000305175781 -1.61899995803833,2.5260000228881836 -3.0420000553131104,3.700000047683716 c-2.365000009536743,1.9500000476837158 -5.113999843597412,3.308000087738037 -8.90999984741211,4.4019999504089355 c-2.0390000343322754,0.5879999995231628 -5.335999965667725,1.3009999990463257 -6.014999866485596,1.3009999990463257 c-0.14399999380111694,0 -0.414000004529953,-0.47200000286102295 -1.25600004196167,-2.1989998817443848 zM9.536548793315887,27.66200065612793 c-0.028999999165534973,-0.05900000035762787 -0.3790000081062317,-0.777999997138977 -0.7789999842643738,-1.5989999771118164 c-0.8320000171661377,-1.7089999914169312 -1.0679999589920044,-2.308000087738037 -0.9079999923706055,-2.308000087738037 c0.05999999865889549,0 0.08399999886751175,-0.07699999958276749 0.054999999701976776,-0.17100000381469727 s-0.012000000104308128,-0.19200000166893005 0.039000000804662704,-0.21799999475479126 c0.3050000071525574,-0.15800000727176666 -0.06400000303983688,-1.1579999923706055 -0.6230000257492065,-1.690999984741211 c-0.24799999594688416,-0.2370000034570694 -0.3370000123977661,-0.41100001335144043 -0.36500000953674316,-0.7170000076293945 c-0.04399999976158142,-0.4699999988079071 -0.35899999737739563,-1.38100004196167 -0.7020000219345093,-2.0320000648498535 c-0.16500000655651093,-0.31299999356269836 -0.2029999941587448,-0.4650000035762787 -0.12099999934434891,-0.4880000054836273 c0.06499999761581421,-0.017999999225139618 -0.22499999403953552,-0.10300000011920929 -0.6460000276565552,-0.18700000643730164 s-0.8220000267028809,-0.19200000166893005 -0.8920000195503235,-0.23800000548362732 c-0.07000000029802322,-0.04600000008940697 -0.12800000607967377,-0.0689999982714653 -0.12800000607967377,-0.05000000074505806 c0,0.22200000286102295 4.914999961853027,9.805999755859375 5.0289998054504395,9.805999755859375 c0.050999999046325684,0 0.07000000029802322,-0.04800000041723251 0.041999999433755875,-0.10700000077486038 zM8.463548839092255,17.562999725341797 c-2.6549999713897705,-0.3440000116825104 -4.882999897003174,-0.6430000066757202 -4.952000141143799,-0.6650000214576721 c-0.11800000071525574,-0.03799999877810478 -0.5400000214576721,-1.4459999799728394 -0.777999997138977,-2.5920000076293945 c-0.05999999865889549,-0.28999999165534973 -0.14800000190734863,-1.0579999685287476 -0.19599999487400055,-1.7079999446868896 c-0.21400000154972076,-2.9000000953674316 0.4169999957084656,-4.90500020980835 2.1080000400543213,-6.708000183105469 c2.86299991607666,-3.049999952316284 8.993000030517578,-3.4210000038146973 15.909000396728516,-0.9629999995231628 c1.2139999866485596,0.4320000112056732 1.6959999799728394,0.7319999933242798 1.4730000495910645,0.9190000295639038 c-0.16500000655651093,0.1379999965429306 -1.2829999923706055,0.13600000739097595 -3.2149999141693115,-0.006000000052154064 c-3.0199999809265137,-0.22200000286102295 -5.318999767303467,0.1979999989271164 -6.504000186920166,1.190000057220459 c-1.8040000200271606,1.5099999904632568 -1.5290000438690186,4.820000171661377 0.7979999780654907,9.595000267028809 c0.25200000405311584,0.5170000195503235 0.5059999823570251,1.0230000019073486 0.5640000104904175,1.1260000467300415 c0.13500000536441803,0.2370000034570694 0.03700000047683716,0.4569999873638153 -0.1979999989271164,0.44600000977516174 c-0.10000000149011612,-0.004999999888241291 -2.3540000915527344,-0.28999999165534973 -5.008999824523926,-0.6340000033378601 zM12.803548038005829,17.555999755859375 c-0.03400000184774399,-0.02800000086426735 -0.12200000137090683,-0.03099999949336052 -0.19599999487400055,-0.007000000216066837 c-0.08100000023841858,0.027000000700354576 -0.05700000002980232,0.04699999839067459 0.06199999898672104,0.052000001072883606 c0.1080000028014183,0.004000000189989805 0.1679999977350235,-0.01600000075995922 0.1340000033378601,-0.04500000178813934 zM12.24654883146286,17.465999603271484 c-0.2460000067949295,-0.08299999684095383 -8.444999694824219,-1.2000000476837158 -8.527000427246094,-1.1610000133514404 c-0.04600000008940697,0.02199999988079071 -0.057999998331069946,0.061000000685453415 -0.027000000700354576,0.08699999749660492 c0.06499999761581421,0.054999999701976776 8.039999961853027,1.1089999675750732 8.423999786376953,1.1139999628067017 c0.14000000059604645,0.0020000000949949026 0.1979999989271164,-0.01600000075995922 0.1289999932050705,-0.039000000804662704 zM8.980548083782196,16.61199951171875 c-0.07000000029802322,-0.024000000208616257 -0.1850000023841858,-0.024000000208616257 -0.2549999952316284,0 s-0.013000000268220901,0.0430000014603138 0.12800000607967377,0.0430000014603138 c0.14000000059604645,0 0.1979999989271164,-0.01899999938905239 0.12800000607967377,-0.0430000014603138 zM6.761548221111298,16.27899932861328 c-1.0099999904632568,-0.15800000727176666 -2.0160000324249268,-0.3179999887943268 -2.2360000610351562,-0.35499998927116394 c-0.3319999873638153,-0.0560000017285347 -0.421999990940094,-0.11800000071525574 -0.5350000262260437,-0.3659999966621399 l-0.13500000536441803,-0.29899999499320984 l0.06599999964237213,0.29899999499320984 c0.035999998450279236,0.164000004529953 0.06599999964237213,0.3409999907016754 0.06700000166893005,0.3919999897480011 c0.0010000000474974513,0.05400000140070915 0.824999988079071,0.20000000298023224 1.9989999532699585,0.3529999852180481 c2.6540000438690186,0.34599998593330383 3.059000015258789,0.33399999141693115 0.7739999890327454,-0.024000000208616257 zM17.37054842710495,14.96500015258789 c-2.11899995803833,-0.38100001215934753 -4.02400016784668,-1.6950000524520874 -4.638999938964844,-3.197999954223633 c-0.29499998688697815,-0.722000002861023 -0.2809999883174896,-1.6640000343322754 0.03400000184774399,-2.2279999256134033 c0.2849999964237213,-0.5099999904632568 1.0210000276565552,-1.100000023841858 1.6799999475479126,-1.347000002861023 c1.097000002861023,-0.41100001335144043 3.0179998874664307,-0.24699999392032623 4.418000221252441,0.3779999911785126 c1.3289999961853027,0.5929999947547913 2.506999969482422,1.6360000371932983 2.944999933242798,2.6059999465942383 c0.5619999766349792,1.2450000047683716 0.09399999678134918,2.634000062942505 -1.1100000143051147,3.296999931335449 c-0.7979999780654907,0.4390000104904175 -2.3489999771118164,0.6679999828338623 -3.3289999961853027,0.492000013589859 zM16.264547526836395,13.968999862670898 c-0.3840000033378601,-0.16500000655651093 -0.7239999771118164,-0.27900001406669617 -0.7540000081062317,-0.2540000081062317 c-0.05999999865889549,0.05000000074505806 1.184999942779541,0.5649999976158142 1.3509999513626099,0.5580000281333923 c0.0560000017285347,-0.0020000000949949026 -0.21299999952316284,-0.13899999856948853 -0.597000002861023,-0.30399999022483826 zM15.177548587322235,13.086999893188477 c-0.3089999854564667,-0.2290000021457672 -0.7789999842643738,-0.6209999918937683 -1.0449999570846558,-0.871999979019165 s-0.48399999737739563,-0.4169999957084656 -0.48500001430511475,-0.3700000047683716 c-0.003000000026077032,0.2160000056028366 1.7699999809265137,1.6710000038146973 2.0230000019073486,1.6610000133514404 c0.03700000047683716,-0.0020000000949949026 -0.1850000023841858,-0.1899999976158142 -0.49399998784065247,-0.4189999997615814 z" id="svg_1" class="selected" fill="#ffffff" fill-opacity="1"/></g></svg>